<svg xmlns="http://www.w3.org/2000/svg" viewBox="0 0 64 64">
  <circle cx="32" cy="32" r="32" fill="#3B6EF5"/>
  <path d="M30 18 L32 12 L34 18 Z" fill="#fff"/>
  <ellipse cx="20" cy="24" rx="3.2" ry="4.6" fill="#fff"/>
  <ellipse cx="44" cy="24" rx="3.2" ry="4.6" fill="#fff"/>
  <path d="M16 34 C16 24 23 19 32 19 C41 19 48 24 48 34 C48 43 41 49 32 49 C23 49 16 43 16 34 Z" fill="#fff"/>
  <circle cx="26" cy="33" r="2" fill="#3B6EF5"/>
  <circle cx="38" cy="33" r="2" fill="#3B6EF5"/>
  <ellipse cx="22" cy="39" rx="2.4" ry="1.4" fill="#3B6EF5" opacity="0.18"/>
  <ellipse cx="42" cy="39" rx="2.4" ry="1.4" fill="#3B6EF5" opacity="0.18"/>
  <path d="M27 41 Q32 45 37 41" stroke="#3B6EF5" stroke-width="1.8" stroke-linecap="round" fill="none"/>
</svg>
